<?xml version="1.0" encoding="UTF-8" standalone="no"?><!DOCTYPE svg PUBLIC "-//W3C//DTD SVG 1.1//EN" "http://www.w3.org/Graphics/SVG/1.1/DTD/svg11.dtd"><svg width="100%" height="100%" viewBox="0 0 128 128" version="1.1" xmlns="http://www.w3.org/2000/svg" xmlns:xlink="http://www.w3.org/1999/xlink" xml:space="preserve" xmlns:serif="http://www.serif.com/" style="fill-rule:evenodd;clip-rule:evenodd;stroke-linejoin:round;stroke-miterlimit:2;"><path d="M63.049,18.927c0.134,-0.412 0.518,-0.691 0.951,-0.691c0.433,0 0.817,0.279 0.951,0.691c2.633,8.104 9.826,30.24 9.826,30.24c-0,0 23.275,0 31.796,0c0.433,0 0.817,0.279 0.951,0.691c0.134,0.412 -0.013,0.864 -0.363,1.118c-6.894,5.009 -25.724,18.69 -25.724,18.69c0,-0 7.193,22.136 9.826,30.24c0.134,0.412 -0.013,0.863 -0.364,1.118c-0.35,0.254 -0.825,0.254 -1.175,-0c-6.894,-5.009 -25.724,-18.69 -25.724,-18.69c0,0 -18.83,13.681 -25.724,18.69c-0.35,0.254 -0.825,0.254 -1.175,-0c-0.351,-0.255 -0.498,-0.706 -0.364,-1.118c2.633,-8.104 9.826,-30.24 9.826,-30.24c-0,-0 -18.83,-13.681 -25.724,-18.69c-0.35,-0.254 -0.497,-0.706 -0.363,-1.118c0.134,-0.412 0.518,-0.691 0.951,-0.691c8.521,0 31.796,0 31.796,0c0,0 7.193,-22.136 9.826,-30.24Z" style="fill:#f2c230;"/></svg>